<svg width="33" height="33" viewBox="0 0 33 33" fill="none" xmlns="http://www.w3.org/2000/svg">
<path d="M31.2103 0.582031H1.75121C1.04275 0.582031 0.470383 1.1544 0.470383 1.86286V31.322C0.470383 32.0304 1.04275 32.6028 1.75121 32.6028H31.2103C31.9188 32.6028 32.4912 32.0304 32.4912 31.322V1.86286C32.4912 1.1544 31.9188 0.582031 31.2103 0.582031ZM27.5119 9.9281H24.9543C22.949 9.9281 22.5607 10.8807 22.5607 12.2816V15.3676H27.3478L26.7234 20.1988H22.5607V32.6028H17.5695V20.2028H13.3948V15.3676H17.5695V11.8053C17.5695 7.67063 20.0951 5.41717 23.7855 5.41717C25.5547 5.41717 27.0716 5.54925 27.5159 5.60929V9.9281H27.5119Z" fill="#FF5722"/>
</svg>
