<svg width="33" height="33" viewBox="0 0 33 33" fill="none" xmlns="http://www.w3.org/2000/svg">
<path d="M31.1981 0.582031H1.73898C1.03052 0.582031 0.458145 1.1544 0.458145 1.86286V31.322C0.458145 32.0304 1.03052 32.6028 1.73898 32.6028H31.1981C31.9066 32.6028 32.4789 32.0304 32.4789 31.322V1.86286C32.4789 1.1544 31.9066 0.582031 31.1981 0.582031ZM9.95631 27.8677H5.20523V12.5858H9.95631V27.8677ZM7.58277 10.4965C7.03812 10.4965 6.5057 10.335 6.05285 10.0324C5.59999 9.72978 5.24703 9.29969 5.0386 8.79651C4.83017 8.29332 4.77564 7.73962 4.88189 7.20544C4.98815 6.67126 5.25042 6.18058 5.63555 5.79546C6.02067 5.41033 6.51135 5.14806 7.04553 5.0418C7.57971 4.93555 8.13341 4.99008 8.6366 5.19851C9.13978 5.40694 9.56987 5.7599 9.87246 6.21276C10.175 6.66561 10.3366 7.19803 10.3366 7.74268C10.3326 9.26366 9.09975 10.4965 7.58277 10.4965ZM27.7439 27.8677H22.9968V20.4349C22.9968 18.6618 22.9648 16.3843 20.5272 16.3843C18.0576 16.3843 17.6773 18.3135 17.6773 20.3068V27.8677H12.9342V12.5858H17.4892V14.6752H17.5532C18.1856 13.4744 19.7347 12.2056 22.0482 12.2056C26.8593 12.2056 27.7439 15.3716 27.7439 19.4863V27.8677Z" fill="#FF5722"/>
</svg>
