<svg width="22" height="27" viewBox="0 0 22 27" fill="none" xmlns="http://www.w3.org/2000/svg">
<path d="M11.4999 16.0859C14.4553 16.0859 16.8588 13.6893 16.8588 10.7422C16.8588 7.79511 14.4553 5.39844 11.4999 5.39844C8.54438 5.39844 6.14088 7.79511 6.14088 10.7422C6.14088 13.6893 8.54438 16.0859 11.4999 16.0859ZM11.4999 8.07031C12.9776 8.07031 14.1793 9.26865 14.1793 10.7422C14.1793 12.2157 12.9776 13.4141 11.4999 13.4141C10.0221 13.4141 8.82037 12.2157 8.82037 10.7422C8.82037 9.26865 10.0221 8.07031 11.4999 8.07031Z" fill="#FF5722"/>
<path d="M10.4412 26.525C10.6679 26.6864 10.9396 26.7732 11.2182 26.7732C11.4969 26.7732 11.7685 26.6864 11.9953 26.525C12.4026 26.2377 21.975 19.3456 21.9362 10.7422C21.9362 4.84937 17.1278 0.0546875 11.2182 0.0546875C5.30861 0.0546875 0.500271 4.84937 0.500271 10.7355C0.461418 19.3456 10.0339 26.2377 10.4412 26.525ZM11.2182 2.72656C15.6514 2.72656 19.2567 6.32157 19.2567 10.7489C19.2848 16.6778 13.3779 22.0015 11.2182 23.7475C9.05989 22.0001 3.15162 16.6751 3.17976 10.7422C3.17976 6.32157 6.78501 2.72656 11.2182 2.72656Z" fill="#FF5722"/>
</svg>
